# xmcd CD database file
# Copyright (C) 1997 Ti Kan
# 
# Track frame offsets:
#     150
#     14588
#     29748
#     42795
#     59200
#     75455
#     89718
#     103975
#     125548
#     137340
# 
# Disc length: 2013 seconds
# 
# Revision: 1
# Processed by: cddbd v1.4b41PL1 Copyright (c) Steve Scherf et al.
# Submitted via: DiscPlay 4.0.2
# 
DISCID=8e07db0a
DTITLE=Kris Kristofferson - Border Lord
DYEAR=1900
DGENRE=
TTITLE0=Josie
TTITLE1=Burden Of Freedom
TTITLE2=Stagger Mountain Tragedy
TTITLE3=Border Lord
TTITLE4=Somebody Nobody Knows
TTITLE5=Little Girl Lost
TTITLE6=Smokey Put The Sweat On Me
TTITLE7=When She Was Wrong
TTITLE8=Gettin' By, High And Strange
TTITLE9=Kiss The World Goodbye
EXTD=
EXTT0=
EXTT1=
EXTT2=
EXTT3=
EXTT4=
EXTT5=
EXTT6=
EXTT7=
EXTT8=
EXTT9=
PLAYORDER=
